<svg xmlns="http://www.w3.org/2000/svg" viewBox="0 0 64 64"><defs><linearGradient id="ii-g" x1="0" y1="0" x2="1" y2="1"><stop offset="0" stop-color="#7B5CFF"/><stop offset="1" stop-color="#4A22D6"/></linearGradient></defs><g transform="rotate(-12 32 32)"><path d="M10 14h44a6 6 0 0 1 6 6v6.5a5.5 5.5 0 0 0 0 11V44a6 6 0 0 1-6 6H10a6 6 0 0 1-6-6v-6.5a5.5 5.5 0 0 0 0-11V20a6 6 0 0 1 6-6z" fill="url(#ii-g)"/><path d="M45 20v3.2M45 26.9v3.2M45 33.8v3.2M45 40.7v3.2" stroke="#fff" stroke-opacity=".55" stroke-width="2.4" stroke-linecap="round"/><path d="M18 32.5l5.5 5.5 12-12" fill="none" stroke="#fff" stroke-width="5.2" stroke-linecap="round" stroke-linejoin="round"/></g></svg>
